<?xml version="1.0" encoding="UTF-8" standalone="no"?>
<!DOCTYPE svg PUBLIC "-//W3C//DTD SVG 1.1//EN" "http://www.w3.org/Graphics/SVG/1.1/DTD/svg11.dtd">
<!-- Created with Vectornator (http://vectornator.io/) -->
<svg height="100%" stroke-miterlimit="10" style="fill-rule:nonzero;clip-rule:evenodd;stroke-linecap:round;stroke-linejoin:round;" version="1.1" viewBox="98.3188 356.334 109.676 125.985" width="100%" xml:space="preserve" xmlns="http://www.w3.org/2000/svg" xmlns:vectornator="http://vectornator.io" xmlns:xlink="http://www.w3.org/1999/xlink">
<defs/>
<g id="Layer-2" vectornator:layerName="Layer 2">
<path d="M99.8188 367.289L99.8188 435.255C99.8188 443.462 105.698 447.001 112.95 443.158L178.875 408.229C186.127 404.387 186.127 398.157 178.875 394.314L112.95 359.386C105.698 355.543 99.8188 359.082 99.8188 367.289Z" fill="#ffffff" fill-rule="nonzero" opacity="1" stroke="#73beff" stroke-linecap="butt" stroke-linejoin="round" stroke-width="3" vectornator:layerName="Curve 6"/>
<path d="M109.807 384.854L109.807 452.82C109.807 461.027 115.686 464.566 122.939 460.723L188.863 425.794C196.115 421.952 196.115 415.722 188.863 411.879L122.939 376.951C115.686 373.108 109.807 376.647 109.807 384.854Z" fill="#ffffff" fill-rule="nonzero" opacity="1" stroke="#5bb3ff" stroke-linecap="butt" stroke-linejoin="round" stroke-width="3" vectornator:layerName="Curve 7"/>
<path d="M121.999 403.398L121.999 471.363C121.999 479.571 127.879 483.109 135.131 479.267L201.055 444.338C208.308 440.495 208.308 434.265 201.055 430.423L135.131 395.494C127.879 391.652 121.999 395.19 121.999 403.398Z" fill="#ffffff" fill-rule="nonzero" opacity="1" stroke="#5bb3ff" stroke-linecap="butt" stroke-linejoin="round" stroke-width="3" vectornator:layerName="Curve 8"/>
<path d="M161.167 457.427L154.815 442.873L161.964 443.318C164.799 443.505 166.159 440.365 164.167 438.373L140.682 414.794C138.784 412.919 135.924 414.021 135.878 416.693L135.292 449.81C135.221 452.74 138.503 453.982 140.424 451.802L144.854 446.763L150.831 461.646C151.604 463.615 153.292 464.013 155.003 463.38L159.432 461.74C161.237 461.06 161.964 459.302 161.167 457.427Z" fill="#ffffff" opacity="1" stroke="#5bb3ff" stroke-linecap="butt" stroke-linejoin="round" stroke-width="3" vectornator:layerName="Text 2"/>
</g>
</svg>
